<?xml version="1.0" encoding="utf-8"?>
<!-- Generator: Adobe Illustrator 27.9.0, SVG Export Plug-In . SVG Version: 6.00 Build 0)  -->
<svg version="1.1" id="Layer_1" xmlns="http://www.w3.org/2000/svg" xmlns:xlink="http://www.w3.org/1999/xlink" x="0px" y="0px"
	 viewBox="0 0 226.8 96.2" style="enable-background:new 0 0 226.8 96.2;" xml:space="preserve">
<style type="text/css">
	.st0{fill:#231F20;}
</style>
<g>
	<path class="st0" d="M75.5,27.6h1.9c1.8,0,2.9,1.1,2.9,2.9V35c0,1.8-1.1,2.9-2.9,2.9h-0.7c-2.8,0-4.2,1.6-4.2,4.2V59
		c0,1.8-1.1,2.9-2.9,2.9h-5.1c-1.8,0-2.9-1.1-2.9-2.9V41.3C61.6,33.1,66.1,27.6,75.5,27.6z"/>
	<path class="st0" d="M86.1,14.1h5.1c1.8,0,2.9,1.1,2.9,2.9v27.8c0,4.9,3.2,7.5,7.1,7.5c4.2,0,6.9-3.2,6.9-7c0-4.3-3.7-7.3-7.6-7.3
		h-0.6c-1.7,0-2.9-1.1-2.3-3.2l1.3-4.8c0.5-1.8,1.3-2.3,3-2.3h0.1c4.9,0,17.2,4,17.2,17.7c0,10.5-7.8,17.5-18.1,17.5
		c-10.2,0-17.8-7.1-17.8-17.5V17C83.2,15.1,84.3,14.1,86.1,14.1z"/>
	<path class="st0" d="M122.4,19.1c0-3.4,2.7-5.9,6.1-5.9c3.5,0,6.1,2.5,6.1,5.9c0,3.5-2.6,5.9-6.1,5.9C125,25,122.4,22.5,122.4,19.1
		z M123.1,59V30.5c0-1.8,1.1-2.9,2.9-2.9h5.1c1.8,0,2.9,1.1,2.9,2.9V59c0,1.8-1.1,2.9-2.9,2.9H126C124.1,61.9,123.1,60.8,123.1,59z"
		/>
	<path class="st0" d="M139,48.2V23.6c0-1.8,1.1-2.9,2.9-2.9h5.1c1.8,0,2.9,1.1,2.9,2.9v4h5.9c1.8,0,2.9,1.1,2.9,2.9V35
		c0,1.8-1.1,2.9-2.9,2.9h-5.9v8.7c0,3,1.2,4.9,4.8,4.9h1.8c2,0,3.1,1.2,2.5,3.2l-1.3,4.7c-0.4,1.6-1.6,2.5-3.2,2.5h-1.7
		C143.5,61.9,139,56.3,139,48.2z"/>
	<path class="st0" d="M161.1,44c0-9.8,7.5-17.3,17.5-17.3c10.4,0,16.8,7.3,16.8,14.7c0,1.4-0.3,2.9-0.9,4.4
		c-0.6,1.5-1.7,2.1-3.3,2.1h-5.1c-2,0-2.8-0.9-2.3-2.4c0.4-1,0.6-1.8,0.6-2.7c0-3.3-2.7-5.7-5.8-5.7c-3.7,0-6.5,2.8-6.5,6.6
		c0,4.2,3.2,7.6,9.4,7.6h11c2,0,3,1.2,2.5,3.2l-1.2,4.7c-0.4,1.6-1.5,2.5-3.2,2.5h-10.2C169.5,61.9,161.1,54.5,161.1,44z"/>
	<path class="st0" d="M213.3,27.6h1.9c1.8,0,2.9,1.1,2.9,2.9V35c0,1.8-1.1,2.9-2.9,2.9h-0.7c-2.8,0-4.2,1.6-4.2,4.2V59
		c0,1.8-1.1,2.9-2.9,2.9h-5.1c-1.8,0-2.9-1.1-2.9-2.9V41.3C199.5,33.1,204,27.6,213.3,27.6z"/>
	<path class="st0" d="M43.6,77.2c0,2-1.3,2.8-3.1,2.8h-1v2.7c-0.3,0.1-0.6,0.1-0.9,0.1s-0.6,0-0.9-0.1v-8.3h1.8h1
		C42.3,74.4,43.6,75,43.6,77.2z M41.9,77.2c0-1.1-0.6-1.3-1.4-1.3h-0.9v2.6h0.9C41.2,78.5,41.9,78.2,41.9,77.2z"/>
	<path class="st0" d="M52.3,82.7c-0.3,0.1-0.6,0.1-0.9,0.1c-0.3,0-0.7,0-1-0.1l-1.2-3H49h-1.2v3c-0.3,0.1-0.6,0.1-0.9,0.1
		s-0.6,0-0.9-0.1v-8.3h1.8h1.2c1.7,0,3,0.6,3,2.6c0,1-0.4,1.8-1.4,2.2L52.3,82.7z M48.9,78.3c0.7,0,1.5-0.2,1.5-1.2
		c0-1-0.8-1.2-1.5-1.2h-1.1v2.4H48.9z"/>
	<path class="st0" d="M54.2,78.6c0-3,1.5-4.4,4-4.4c2.5,0,3.9,1.4,3.9,4.4S60.6,83,58.2,83C55.7,83,54.2,81.5,54.2,78.6z M60.2,78.6
		c0-1.9-0.6-2.8-2.1-2.8c-1.4,0-2.1,0.9-2.1,2.8c0,1.9,0.6,2.8,2.1,2.8C59.6,81.4,60.2,80.5,60.2,78.6z"/>
	<path class="st0" d="M63.6,82c0-0.2,0-0.5,0.1-0.7c0.3,0,0.5,0,0.7,0c0.5,0,0.6-0.3,0.6-1v-5.9c0.3-0.1,0.6-0.1,0.9-0.1
		c0.3,0,0.6,0,0.9,0.1v5.9c0,1.4-0.2,2.5-2,2.5c-0.3,0-0.7,0-1.2-0.1C63.6,82.5,63.6,82.2,63.6,82z"/>
	<path class="st0" d="M75.2,82c0,0.3,0,0.5-0.1,0.8h-4.2h-1.4v-8.3h1.8h3.6c0.1,0.3,0.1,0.5,0.1,0.8c0,0.3,0,0.5-0.1,0.8h-3.6v1.9
		h3.2c0.1,0.3,0.1,0.5,0.1,0.7c0,0.3,0,0.5-0.1,0.8h-3.2v1.8h3.8C75.2,81.4,75.2,81.7,75.2,82z"/>
	<path class="st0" d="M77,78.6c0-2.9,1.5-4.4,3.9-4.4c2.2,0,3.4,1.3,3.5,3.1c-0.4,0.1-0.7,0.1-1.1,0.1c-0.3,0-0.5,0-0.8,0
		c-0.1-1-0.7-1.6-1.7-1.6c-1.4,0-2,0.9-2,2.8c0,1.9,0.6,2.8,1.9,2.8c1,0,1.6-0.7,1.7-1.6c0.3,0,0.6-0.1,0.8-0.1
		c0.4,0,0.7,0.1,1.1,0.2c-0.1,1.8-1.4,3-3.5,3C78.5,83,77,81.6,77,78.6z"/>
	<path class="st0" d="M92.9,76h-2.4v6.7c-0.3,0.1-0.6,0.1-0.9,0.1c-0.3,0-0.6,0-0.9-0.1V76h-2.5c-0.1-0.3-0.1-0.5-0.1-0.8
		c0-0.3,0-0.5,0.1-0.8h4.3h2.4c0.1,0.3,0.1,0.5,0.1,0.8C92.9,75.5,92.9,75.7,92.9,76z"/>
	<path class="st0" d="M99.5,74.5c0.3-0.1,0.6-0.1,0.9-0.1s0.6,0,0.9,0.1l2.3,5.1l2.3-5.1c0.3-0.1,0.7-0.1,1-0.1c0.3,0,0.6,0,0.8,0.1
		l0.3,8.2c-0.3,0.1-0.6,0.1-0.9,0.1c-0.3,0-0.6,0-0.9-0.1l-0.1-5.1l-1.8,3.8c-0.2,0.1-0.5,0.1-0.7,0.1c-0.2,0-0.5,0-0.7-0.1
		l-1.8-3.8l-0.1,5.1c-0.3,0.1-0.6,0.1-0.9,0.1c-0.3,0-0.6,0-0.9-0.1L99.5,74.5z"/>
	<path class="st0" d="M117.9,82.7c-0.3,0.1-0.6,0.1-1,0.1c-0.4,0-0.7,0-1-0.1l-0.6-1.7h-2.9l-0.6,1.7c-0.3,0.1-0.6,0.1-1,0.1
		c-0.3,0-0.6,0-0.9-0.1l2.9-8.2c0.3-0.1,0.7-0.1,1.1-0.1c0.4,0,0.8,0,1.1,0.1L117.9,82.7z M113.9,76.2l-1,3.3h2L113.9,76.2z"/>
	<path class="st0" d="M126,74.4c0.3,0,0.6,0,0.9,0.1v8.2c-0.3,0.1-0.6,0.1-0.9,0.1c-0.3,0-0.6,0-0.9-0.1l-3.5-5.5l0.1,5.5
		c-0.3,0.1-0.6,0.1-0.9,0.1c-0.3,0-0.6,0-0.9-0.1v-8.2c0.3-0.1,0.6-0.1,0.9-0.1s0.6,0,0.9,0.1l3.5,5.5l-0.1-5.5
		C125.4,74.4,125.7,74.4,126,74.4z"/>
	<path class="st0" d="M136.9,82.7c-0.3,0.1-0.6,0.1-1,0.1c-0.4,0-0.7,0-1-0.1l-0.6-1.7h-2.9l-0.6,1.7c-0.3,0.1-0.6,0.1-1,0.1
		c-0.3,0-0.6,0-0.9-0.1l2.9-8.2c0.3-0.1,0.7-0.1,1.1-0.1c0.4,0,0.8,0,1.1,0.1L136.9,82.7z M132.9,76.2l-1,3.3h2L132.9,76.2z"/>
	<path class="st0" d="M145.7,82.7c-0.2,0.1-0.4,0.1-0.6,0.1c-0.2,0-0.4,0-0.6-0.1l-0.1-1c-0.2,0.5-1,1.3-2.3,1.3
		c-2.2,0-3.7-1.4-3.7-4.4c0-2.9,1.5-4.4,3.9-4.4c2.2,0,3.3,1.3,3.4,2.7c-0.4,0.1-0.8,0.2-1.3,0.2c-0.2,0-0.4,0-0.6,0
		c-0.1-0.7-0.5-1.3-1.5-1.3c-1.2,0-1.9,0.9-1.9,2.8c0,1.9,0.7,2.8,1.9,2.8c1.1,0,1.8-0.8,1.9-1.8h-1.5c-0.1-0.2-0.1-0.4-0.1-0.7
		c0-0.2,0-0.4,0.1-0.6h3.2V82.7z"/>
	<path class="st0" d="M154.1,82c0,0.3,0,0.5-0.1,0.8h-4.2h-1.4v-8.3h1.8h3.6c0.1,0.3,0.1,0.5,0.1,0.8c0,0.3,0,0.5-0.1,0.8h-3.6v1.9
		h3.2c0.1,0.3,0.1,0.5,0.1,0.7c0,0.3,0,0.5-0.1,0.8h-3.2v1.8h3.8C154.1,81.4,154.1,81.7,154.1,82z"/>
	<path class="st0" d="M156.6,74.5c0.3-0.1,0.6-0.1,0.9-0.1s0.6,0,0.9,0.1l2.3,5.1l2.3-5.1c0.3-0.1,0.7-0.1,1-0.1
		c0.3,0,0.6,0,0.8,0.1l0.3,8.2c-0.3,0.1-0.6,0.1-0.9,0.1c-0.3,0-0.6,0-0.9-0.1l-0.1-5.1l-1.8,3.8c-0.2,0.1-0.5,0.1-0.7,0.1
		c-0.2,0-0.5,0-0.7-0.1l-1.8-3.8l-0.1,5.1c-0.3,0.1-0.6,0.1-0.9,0.1c-0.3,0-0.6,0-0.9-0.1L156.6,74.5z"/>
	<path class="st0" d="M173.4,82c0,0.3,0,0.5-0.1,0.8h-4.2h-1.4v-8.3h1.8h3.6c0.1,0.3,0.1,0.5,0.1,0.8c0,0.3,0,0.5-0.1,0.8h-3.6v1.9
		h3.2c0.1,0.3,0.1,0.5,0.1,0.7c0,0.3,0,0.5-0.1,0.8h-3.2v1.8h3.8C173.4,81.4,173.4,81.7,173.4,82z"/>
	<path class="st0" d="M181.7,74.4c0.3,0,0.6,0,0.9,0.1v8.2c-0.3,0.1-0.6,0.1-0.9,0.1c-0.3,0-0.6,0-0.9-0.1l-3.5-5.5l0.1,5.5
		c-0.3,0.1-0.6,0.1-0.9,0.1c-0.3,0-0.6,0-0.9-0.1v-8.2c0.3-0.1,0.6-0.1,0.9-0.1s0.6,0,0.9,0.1l3.5,5.5l-0.1-5.5
		C181.2,74.4,181.4,74.4,181.7,74.4z"/>
	<path class="st0" d="M191.7,76h-2.4v6.7c-0.3,0.1-0.6,0.1-0.9,0.1c-0.3,0-0.6,0-0.9-0.1V76H185c-0.1-0.3-0.1-0.5-0.1-0.8
		c0-0.3,0-0.5,0.1-0.8h4.3h2.4c0.1,0.3,0.1,0.5,0.1,0.8C191.8,75.5,191.7,75.7,191.7,76z"/>
	<g>
		<g>
			
				<image style="overflow:visible;" width="512" height="473" xlink:href="7547E148040011B4.png"  transform="matrix(0.1022 0 0 0.1022 8.5107 13.8015)">
			</image>
		</g>
	</g>
</g>
</svg>
